<svg xmlns="http://www.w3.org/2000/svg" xml:space="preserve" overflow="visible" viewBox="0 0 824 347.4">
  <style>
    .st0{fill:#7a6f54}.st2{fill:#aba285}.st3{fill:#94886c}.st16,.st5,.st7,.st9{fill-rule:evenodd;clip-rule:evenodd;fill:#008000}.st16,.st7,.st9{fill:#fefefe}.st16,.st9{fill:#d0ceb1}.st16{fill:#3e3938}.st17{fill:#fefefe}.st23{fill:#3e3938}
    
    .colore{fill: #003400}
  </style>
  <path class="st0" d="m587.5 317.1 10.8-3.8-50.5-51-2-1.1-18.8 6.7 60.5 49.2zm-63.2-52.4 16.8-6-36.2-24.8-30.2 10.7 49.6 20.1z" />
  <linearGradient id="SVGID_1_" gradientUnits="userSpaceOnUse" x1="536.1227" y1="546.596" x2="536.1227" y2="343.7558" gradientTransform="rotate(-19.593 21.01014 279.83419)">
    <stop offset="0" stop-color="#aba285" />
    <stop offset="1" stop-color="#94886c" />
  </linearGradient>
  <path d="m626.7 347.4 23.6-8.4c7.1-2.5 5.2-6.8 3.3-10.5l-92.6-173-82.1 67.9 63.7 38.8 84.1 85.2z" fill="url(#SVGID_1_)" />
  <path class="st2" d="m653.6 328.5-92.6-173-82.1 67.9 5.1 3.1 63.3-52.4L652 338.2c5.1-2.5 3.4-6.4 1.6-9.7z" />
  <path class="st0" d="m206.3 327.2 14.6-5.2c5.9-2.1 3.4-6.1.9-9.7l-18.7-26-62.3 1.2 65.5 39.7z" />
  <path class="st3" d="M220.9 322c5.9-2.1 3.4-6.1.9-9.7l-18.7-26-13.9.2c2.8 3.1 4.7 5.5 4.9 6.8l26.8 28.7z" />

  <path d="m118.1 139.1 19.5-7c6-2.1 12.1-1.3 16.3 3.5l62.8 73.6c-26.8 17.6-55.3 33.3-87.5 44.6l-11.1-114.7z" class="colore" clip-rule="evenodd" />
  <path class="st5" d="m119.1 138.8 18.6-6.6c6-2.1 12.1-1.3 16.3 3.5l62.8 73.6c-8.9 5.9-18 11.5-27.5 17l-54-83.9c-3.4-5.5-10.2-5.8-16.2-3.6z" />
  <path d="M310.8 170.3 679.3 39.6c33.5-11.9 79-17.4 109.4 3.1 18.6 3.7 30.1 6.5 34.7 19.3 6.6 18.6-43.4 54.2-75.7 65.7l-390.3 139c-29.5 10.5-91.8 25.4-151.6 26.5l-103.3 2c-11.5.3-14.9-1.2-15.1-4.5-.5-8.5 2.2-12.2 9.7-17.8 10.9-8 99.5-62 213.7-102.6z" fill-rule="evenodd" clip-rule="evenodd" fill="#f7f7f2" />
  <path class="st7" d="M370.1 183.2c.6 1.6-.3 3.4-1.9 4l-63.6 22.6c-1.6.6-3.4-.3-4-1.9-.6-1.6.3-3.4 1.9-4l63.6-22.6c1.6-.6 3.4.3 4 1.9zM293.8 210.4c.6 1.6-.3 3.4-1.9 4l-36.2 12.9c-1.6.6-3.4-.3-4-1.9-.6-1.6.3-3.4 1.9-4l36.2-12.9c1.6-.6 3.4.3 4 1.9z" />
  <path d="M717.6 43.1c8.9-3.2 19.2-8 29.2-13.9-23-1.8-47.5 3.2-67.6 10.4L310.7 170.3c-31.3 11.1-60.7 23-87.1 34.9 42.9-5.3 82-15.5 103.6-23.2L717.6 43.1z" fill-rule="evenodd" clip-rule="evenodd" fill="#f7f7f2" />
  <path class="st9" d="M823.4 62c6.6 18.6-43.4 54.2-75.7 65.7l-390.3 139c-29.5 10.5-91.8 25.4-151.6 26.5l-103.3 2c-11.5.3-14.9-1.2-15.1-4.5-.2-2.2-.2-3.9.3-5.5l88.8-3.5c63.6-2.6 130.1-19 161.8-30.3l418.2-148.9c21.1-7.6 49.5-24.3 66.9-40.5z" />
  <path d="m501.8 196.2-106.5 22.3h-1.1c-.5-4.5 0-8.9 1.8-12.6l8.1-17.1 101.3-36-11.6 24.5c-3.4 7.6-.4 14.9 8 18.9z" fill-rule="evenodd" clip-rule="evenodd" fill="url(#SVGID_5_)" />
  <path d="m151.9 294.2-49.4 1-1.2.1c-.5-4.4.1-8.8 1.8-12.5l8.1-17.2 44.4-14.7-11.4 24.5c-3.6 7.5-.6 14.9 7.7 18.8z" fill-rule="evenodd" clip-rule="evenodd" fill="url(#SVGID_6_)" />
  <path class="st0" d="m0 213.8 15.5-5.5c7.2-2.6 14.3.1 20.4 2.1l118.7 39c3.3 1-1.5 8.9-13 14.4-10.2 5-26.9 8-30.6 6l-111-56zM152.6 56l15.5-5.5 168.2 76.7-26.9 9.6L152.6 56zm162.7 82.9 25.2-9 67.4 57.5-25.7 9.1-66.9-57.6z" />
  <path d="m73.1 9.5 23.6-8.4c7.1-2.5 14.4-.1 20.3 2.2l385.3 142.9c26.4 9.9-85.8 53.2-98.1 42.6l-71-60.5-171-78c-2.6-1.2-9.2 2.8-12.8.9L73.1 9.5z" fill="#9d9275" />
  <path class="st2" d="M96.6 1.1c7.1-2.5 14.4-.1 20.3 2.2l385.3 142.9c9.6 3.6.8 11.6-14.7 19.8l-90.2-43.2L96.6 1.1z" />
  <path class="st3" d="m193.3 64.4 18.3-6.5c7-2.5-13.2 20.2-22 23.3l-19.9 7.1c-8.5 3 14.9-20.8 23.6-23.9zM279.6 107.1l32.2-11.5c6.9-2.5-27.1 25.1-35.8 28.2l-19.9 7.1c-8.6 3.1 14.8-20.7 23.5-23.8z" />
  <path d="M390 127.4c17.7-11.1 50.6-33.3 74.9-31.5l17.4 49c-17.6 16.8-57.2 20.4-77.9 22.9-25.3 3.1-36-26.9-14.4-40.4z" class="colore" clip-rule="evenodd" fill="#9e1a20" />
  <path class="st5" d="M378.8 142.6c20-11.8 57.3-31.8 77.4-30 4.4.4 9.1-.6 13.7-2.6l-5-14c-24.3-1.9-57.2 20.4-74.9 31.5-6.5 4-10 9.4-11.2 15.1z" />
  <path d="M464.8 95.9c8.2-2.9 18.9 5.6 23.8 19.1 4.8 13.5 1.9 26.9-6.3 29.8-8.3 3-18.9-5.6-23.8-19.1-4.8-13.4-2-26.8 6.3-29.8z" fill="#9f9478" />
  <path d="M476 97c5.5 2.7 10.8 9.1 13.8 17.6 3 8.3 3 16.7.4 22.4-.6.3-1.1.6-1.8.9-7.1 2.5-16.1-4.5-20-15.6-4-11.2-1.5-22.2 5.7-24.8.6-.3 1.2-.3 1.9-.5z" fill="url(#SVGID_10_)" />
  <path class="st16" d="M483.3 138.2c-5.9-1.2-11.9-7.4-15-15.9-3.1-8.7-2.3-17.2 1.5-21.8 5.8 1.1 11.9 7.3 15 16 3.1 8.5 2.3 17-1.5 21.7z" />
  <path class="st9" d="M483.3 138.2c-2.4-.5-4.8-1.9-7-3.8 4.4-3.4 7.5-10.1 8.1-17.9.1-.5.1-.9.1-1.3.1.3.2.7.4 1.1 3 8.7 2.2 17.2-1.6 21.9z" />
  <path class="st17" d="M486.8 139.9c-9.2 3.3-17.3-10.3-19.7-17.2-2.5-7-4.8-22.6 4.4-25.9 9.1-3.2 17.3 10.3 19.8 17.3 2.4 6.9 4.6 22.6-4.5 25.8zm-1-2.7c7-2.5 4.5-16.9 2.6-22.1-1.8-5.2-9-18.1-16-15.6-7.1 2.5-4.4 17-2.6 22.2 1.9 5.2 8.9 18 16 15.5z" />
  <path class="st9" d="m567.2 157.5 45.3 18.8-30.3 24.6c-7.4 6.1-19.9 13-32.1 17.4l-88.8 31.6c-17.7 6.3-31.7 7.2-46.3 6.5l-31.4-1.6-45.3-18.8 228.9-78.5z" />
  <path d="M586 194.9c-8.3 6.2-22.3 13.2-35.8 18l-97.9 34.8c-13.9 5-25.6 7.5-37 8.4 14.4.7 28.5.1 46-6.1l88.8-31.6c12.3-4.4 24.8-11.4 32.1-17.5l30.3-24.7-.5-.2-26 18.9z" fill-rule="evenodd" clip-rule="evenodd" fill="url(#SVGID_11_)" />
  <path d="m337.6 235.9 31.4 1.6c14.5.8 28.6-.2 46.3-6.5l88.8-31.6c12.3-4.4 24.8-11.3 32.1-17.2l30.4-24.8c-12.2-4.9-17-4.3-36 2.4l-161.3 57.4c-26 9.2-38.3 15.9-31.7 18.7z" fill-rule="evenodd" clip-rule="evenodd" fill="url(#SVGID_12_)" />
  <path class="st9" d="m388 210-5.2 14.1c-1.5 3.9-1.9 8.7-1.6 13.5 10.5-.4 21.4-1.9 34-6.4l61.5-21.9c-.4-3.2-.2-6.8 1-10.2l8.8-24.2L388 210z" />
  <path class="st3" d="m558.3 277.4 27.2-9.7c6.3-2.2-22.7 21.9-30.5 24.7l-17.9 6.4c-7.8 2.7 13.4-18.7 21.2-21.4zM587.8 307.9l23.3-8.3c6.3-2.2-18.6 20.6-26.4 23.4l-15.7 5.6c-7.9 2.8 11.1-18 18.8-20.7z" />
  <g>
    <path d="M579.1 249.2c16-10.3 45.5-30.8 67.7-28.7l16.5 46.2c-15.9 15.5-51.7 18.4-70.6 20.6-23 2.6-33-25.8-13.6-38.1z" fill-rule="evenodd" clip-rule="evenodd" fill="#003400" />
    <path class="st5" d="M571.2 257.5c20.7-11.6 50.5-26 67.6-24.4 3.8.4 7.8-.3 11.8-1.9l-3.8-10.8c-22.2-2.1-51.7 18.4-67.7 28.7-3.6 2.4-6.3 5.3-7.9 8.4z" />
    <path d="M646.8 220.5c7.8-2.8 17.8 5.3 22.4 18 4.5 12.7 1.9 25.4-5.9 28.2-7.8 2.8-17.9-5.4-22.4-18.1-4.6-12.8-1.9-25.3 5.9-28.1z" fill="#9f9478" />
    <path d="M657.4 221.6c5.2 2.6 10.2 8.6 13.1 16.5 2.9 8 2.8 15.8.4 21.1-.5.3-1.1.6-1.7.8-6.7 2.4-15.1-4.3-18.9-14.8-3.8-10.5-1.4-20.9 5.3-23.3.5-.1 1.1-.4 1.8-.3z" fill="url(#SVGID_15_)" />
    <path class="st16" d="M664.3 260.3c-5.6-1-11.2-6.9-14.1-15-2.9-8.1-2.2-16.2 1.5-20.6 5.5 1.1 11.1 6.9 14 15 2.9 8.2 2.2 16.3-1.4 20.6z" />
    <path class="st9" d="M664.3 260.3c-2.3-.4-4.5-1.6-6.7-3.4 4-3.3 7.1-9.6 7.7-17v-1.1c.1.3.2.7.4 1 2.9 8.1 2.2 16.2-1.4 20.5z" />
    <path class="st17" d="M667.6 262.1c-8.7 3.1-16.4-9.6-18.8-16.3-2.3-6.6-4.4-21.4 4.3-24.5 8.7-3.1 16.3 9.8 18.7 16.4 2.3 6.6 4.4 21.3-4.2 24.4zm-1-2.8c6.6-2.3 4.1-15.9 2.4-20.8-1.7-4.8-8.4-16.9-15-14.6-6.7 2.4-4.2 16-2.5 20.8 1.7 4.9 8.4 17 15.1 14.6z" />
  </g>
  <g>
    <path class="st23" d="M643.7 60c1.3-.5 2.4.4 2.3 2v1.3c0 1.5-1.2 3.2-2.5 3.6-1.4.5-2.5-.4-2.4-1.9v-1.3c0-1.6 1.2-3.2 2.6-3.7zM632.3 64c1.4-.5 2.5.4 2.4 2l-.1 1.3c-.1 1.5-1.2 3.2-2.5 3.6-1.4.5-2.5-.4-2.4-1.9v-1.3c.1-1.6 1.3-3.2 2.6-3.7zM621 68c1.4-.5 2.5.4 2.4 2v1.3c-.1 1.5-1.2 3.2-2.5 3.6-1.4.5-2.5-.4-2.4-1.9v-1.3c0-1.5 1.2-3.2 2.5-3.7zM609.7 72.1c1.3-.5 2.5.4 2.4 2l-.1 1.3c-.1 1.5-1.2 3.2-2.6 3.7-1.3.5-2.4-.4-2.3-1.9v-1.3c0-1.7 1.3-3.4 2.6-3.8zM598.4 76.1c1.3-.5 2.4.4 2.4 2l-.1 1.3c-.1 1.5-1.2 3.2-2.6 3.7-1.3.5-2.4-.4-2.4-1.9v-1.3c.1-1.7 1.3-3.3 2.7-3.8zM587.1 80.1c1.3-.5 2.4.4 2.3 2v1.3c0 1.5-1.2 3.2-2.5 3.6-1.3.5-2.5-.4-2.4-1.9v-1.3c0-1.5 1.2-3.2 2.6-3.7zM575.7 84.2c1.4-.5 2.5.4 2.4 2v1.3c-.1 1.5-1.2 3.2-2.5 3.6-1.4.5-2.5-.4-2.4-1.9v-1.3c0-1.6 1.2-3.2 2.5-3.7zM564.4 88.2c1.4-.5 2.5.4 2.4 2v1.3c-.1 1.5-1.2 3.2-2.5 3.6-1.4.5-2.5-.4-2.4-1.9v-1.3c0-1.6 1.1-3.2 2.5-3.7zM553.1 92.2c1.4-.5 2.5.4 2.4 2l-.1 1.3c-.1 1.5-1.2 3.2-2.6 3.7-1.3.5-2.4-.4-2.3-1.9V96c0-1.6 1.2-3.3 2.6-3.8zM541.7 96.3c1.3-.5 2.5.4 2.4 2v1.3c-.1 1.5-1.2 3.2-2.7 3.7-1.3.5-2.4-.4-2.4-1.9v-1.3c.2-1.7 1.3-3.3 2.7-3.8zM530.4 100.3c1.3-.5 2.4.4 2.3 2l.1 1.2c-.1 1.5-1.3 3.2-2.7 3.7-1.3.5-2.5-.4-2.4-1.9l.1-1.3c.1-1.6 1.2-3.2 2.6-3.7zM519.1 104.3c1.3-.5 2.4.4 2.3 2v1.3c-.1 1.5-1.2 3.2-2.5 3.6-1.4.5-2.5-.4-2.4-1.9V108c.1-1.5 1.2-3.2 2.6-3.7zM507.7 108.4c1.4-.5 2.5.4 2.4 2v1.3c-.1 1.5-1.2 3.2-2.5 3.6-1.4.5-2.5-.4-2.4-1.9v-1.3c.1-1.6 1.2-3.3 2.5-3.7zM496.4 112.4c1.4-.5 2.5.4 2.4 2v1.3c-.1 1.5-1.2 3.2-2.7 3.7-1.3.5-2.4-.4-2.3-1.9l.1-1.3c.1-1.7 1.2-3.3 2.5-3.8z" />
  </g>
  <g>
    <path class="st23" d="M343.5 166.8c1.4-.5 2.5.4 2.4 2v1.3c-.1 1.5-1.2 3.2-2.5 3.6-1.4.5-2.5-.4-2.4-1.9v-1.3c.1-1.6 1.2-3.2 2.5-3.7zM332.2 170.9c1.4-.5 2.5.4 2.4 2v1.3c-.1 1.5-1.2 3.2-2.7 3.7-1.3.5-2.4-.4-2.3-1.9v-1.3c0-1.7 1.3-3.4 2.6-3.8zM320.9 174.9c1.3-.5 2.4.4 2.4 2v1.3c-.1 1.5-1.2 3.2-2.7 3.7-1.3.5-2.4-.4-2.4-1.9v-1.3c.1-1.7 1.3-3.3 2.7-3.8zM309.6 178.9c1.3-.5 2.4.4 2.3 2l.1 1.2c-.1 1.5-1.3 3.2-2.7 3.7-1.3.5-2.5-.4-2.4-1.9v-1.3c.1-1.5 1.3-3.2 2.7-3.7zM298.3 182.9c1.3-.5 2.4.4 2.3 2v1.3c-.1 1.5-1.2 3.2-2.5 3.6-1.4.5-2.5-.4-2.4-1.9v-1.3c0-1.5 1.2-3.2 2.6-3.7zM286.9 187c1.4-.5 2.5.4 2.4 2v1.3c-.1 1.5-1.2 3.2-2.5 3.6-1.4.5-2.5-.4-2.4-1.9v-1.3c0-1.6 1.2-3.2 2.5-3.7zM275.6 191c1.4-.5 2.5.4 2.4 2v1.3c-.1 1.5-1.2 3.2-2.7 3.7-1.3.5-2.4-.4-2.3-1.9v-1.3c.1-1.7 1.3-3.3 2.6-3.8zM264.3 195c1.3-.5 2.5.4 2.4 2l-.1 1.3c-.1 1.5-1.2 3.2-2.7 3.7-1.3.5-2.4-.4-2.4-1.9v-1.3c.2-1.6 1.4-3.2 2.8-3.8zM253 199.1c1.3-.5 2.4.4 2.3 2l.1 1.2c-.1 1.5-1.3 3.2-2.7 3.7-1.3.5-2.5-.4-2.4-1.9v-1.3c.1-1.6 1.2-3.2 2.7-3.7zM241.7 203.1c1.3-.5 2.4.4 2.3 2l-.1 1.3c-.1 1.5-1.2 3.2-2.5 3.6-1.4.5-2.5-.4-2.4-1.9v-1.3c.1-1.6 1.2-3.2 2.7-3.7z" />
  </g>
  <path class="st23" d="M736.5 33.3c16.9-.8 38.7-3.8 52.2 9.4-15.7-3.5-32.2-2.9-46.2-2.7l-3.7 2.7h-11.9l9.6-9.4z" />
  <path class="st9" d="M671.3 42.5c-2.2 10.2-3.2 20.7-2.3 31 .2 2 1.5 3.8 3.9 2.9l9.8-3.5c3-1.1 2.9-4 2.7-6.2-.8-10 .1-20.1 2.2-30 .9-.2 1.8-.5 2.7-.7-2 9.6-2.9 19.6-2.2 29.3.3 4-.7 8.5-5.7 10.3l-9.7 3.4c-3.8 1.4-6.1-.9-6.5-4.4-.9-10.4.2-21.1 2.3-31.4l2.8-.7z" />
  <path class="st3" d="m15.5 208.3 126.1 55.5c11.5-5.5 16.4-13.4 13-14.4l-118.7-39c-6.2-2-13.2-4.7-20.4-2.1z" />
  <path class="st7" d="M569.7 112.1c.6 1.6-.3 3.4-1.9 4L531.6 129c-1.6.6-3.4-.3-4-1.9-.6-1.6.3-3.4 1.9-4l36.2-12.9c1.7-.5 3.4.3 4 1.9z" />
</svg>