<svg xmlns="http://www.w3.org/2000/svg" viewBox="0 0 325.63 325.63"><defs><style>.cls-1{fill:#fff;}.cls-2{fill:#e6e6e6;}</style></defs><g id="Livello_2" data-name="Livello 2"><g id="Layer_28" data-name="Layer 28"><circle class="cls-1" cx="162.81" cy="162.81" r="162.81"/><circle class="cls-2" cx="188.25" cy="126.83" r="10.17"/><circle class="cls-2" cx="106.26" cy="147.17" r="10.17" transform="translate(-72.94 118.24) rotate(-45)"/><circle class="cls-2" cx="181.22" cy="249.95" r="10.17" transform="translate(-103.68 368.9) rotate(-76.72)"/><circle class="cls-2" cx="77.78" cy="229.62" r="13.76"/><circle class="cls-2" cx="153.08" cy="190.77" r="7.42" transform="translate(-67.75 295.93) rotate(-76.72)"/><circle class="cls-2" cx="228.05" cy="210.78" r="5.08"/><circle class="cls-2" cx="128.12" cy="66.32" r="19.09" transform="translate(-6.37 118.51) rotate(-48.58)"/><circle class="cls-2" cx="269.07" cy="156.09" r="19.09" transform="translate(-26 254.58) rotate(-48.58)"/><path class="cls-2" d="M236.59,17.64a13,13,0,1,0,22.1,13.56A161.58,161.58,0,0,0,236.59,17.64Z"/><path class="cls-2" d="M288.89,237.36A145.25,145.25,0,0,1,86,239.76,16.88,16.88,0,0,1,64.7,214.31a144.58,144.58,0,0,1-23-64.88A10.17,10.17,0,1,1,41,130,145.42,145.42,0,0,1,118.4,6.16,162.82,162.82,0,1,0,325,177.61,144.71,144.71,0,0,1,288.89,237.36Z"/><circle class="cls-2" cx="38.42" cy="142.28" r="8.13"/></g></g></svg>