<svg xmlns="http://www.w3.org/2000/svg" xml:space="preserve" overflow="visible" viewBox="0 0 2129.7 425.9">
  <style>
    .st0{opacity:.71;fill:#fdffff}
  </style>
  <path class="st0" d="M1904.5 425.9H411.6c-16.4 0-29.9-13.1-30.3-29.5v-1c-.8-55.2 42.7-101.8 97.8-104.6 20.8-1.1 40.3 4.1 56.9 13.7 20.7-75.1 89.4-130.2 171.1-130.2 32.5 0 63 8.8 89.2 24C834.8 83 943.6 0 1071.8 0c122.5 0 227.3 75.8 270 183.1 17.5-5.8 36.2-8.9 55.6-8.9 72.3 0 134.5 43.2 162.1 105.2 24.7-19.4 55.8-30.9 89.6-30.9 71.1 0 130.2 51 142.8 118.4 16.7-15.5 39-24.9 63.6-24.9 29.4 0 55.6 13.5 72.7 34.7 16.1 19.7 1.7 49.2-23.7 49.2z" />
  <path class="st0" d="M2074.1 425.9h-1062c-50.2 0-74.7-61.2-38.4-95.8 24.5-23.3 57.6-37.7 94.1-37.7 1.8 0 3.7 0 5.5.1v-.1C1073.3 130.9 1204.2 0 1365.7 0c120.9 0 224.7 73.4 269.2 178.2 45.1-39.3 104-63.1 168.6-63.1 122.3 0 224.5 85.5 250.4 199.9 4.3-.4 8.7-.6 13.1-.6 4.1 0 8.1.2 12.1.5 70.6 6.2 65.9 111-5 111zM762.4 414.3v.1c0 6.4-5.3 11.5-11.6 11.5H11.6c-7.9 0-13.4-7.6-11.1-15.1 10-32 39.8-55.3 75.2-55.3 20.9 0 39.9 8.2 54 21.5 7.7-49.4 50.4-87.2 101.9-87.2 24.7 0 47.3 8.7 65 23.1 2.4-55.2 47.9-99.2 103.7-99.2 38.4 0 71.9 20.8 89.9 51.8 35.4-22.6 83-18.5 113.9 12.5 12.6 12.6 20.8 28.1 24.5 44.3 10.9-4.2 22.8-6.5 35.2-6.5 54.4-.1 98.6 44 98.6 98.5z" />
</svg>