<?xml version="1.0" encoding="utf-8"?>
<!-- Generator: Adobe Illustrator 25.1.0, SVG Export Plug-In . SVG Version: 6.00 Build 0)  -->
<svg version="1.1" id="Livello_1" xmlns="http://www.w3.org/2000/svg" xmlns:xlink="http://www.w3.org/1999/xlink" x="0px" y="0px"
	 viewBox="0 0 200 200" style="enable-background:new 0 0 200 200;" xml:space="preserve">
<style type="text/css">
	.st0{fill:#FFFFFF;}
	.st1{fill:#0D3BF9;}
	.st2{fill:#071F4F;}
</style>
<g id="Livello_1-2">
	<circle class="st0" cx="100" cy="100" r="100"/>
</g>
<g>
	<path class="st1" d="M121,74.9v16.7h25.2c0.9,0,1.7,0.7,1.7,1.7l0,0v12.2c0,0.9-0.8,1.6-1.7,1.7H121v18.1h29c0.9,0,1.7,0.7,1.7,1.7
		c0,0,0,0,0,0v12.8c0,0.9-0.7,1.6-1.5,1.7c0,0-0.1,0-0.1,0h-49.1V58.8H150c0.9,0,1.6,0.7,1.7,1.5c0,0,0,0.1,0,0.1v12.7
		c0,0.9-0.7,1.7-1.7,1.7l0,0L121,74.9z"/>
	<path class="st2" d="M85.1,141.2H71.5c-0.9,0-1.7-0.7-1.7-1.6c0,0,0-0.1,0-0.1l6.6-79.2c0.1-0.9,0.8-1.5,1.7-1.5h13.8
		c0.9,0,1.7,0.8,1.7,1.7c0,0,0,0.1,0,0.1l-6.6,79.2c-0.1,0.9-0.8,1.6-1.8,1.6C85.1,141.2,85.1,141.2,85.1,141.2z"/>
	<path class="st2" d="M64.1,141.2H50.3c-0.9,0-1.7-0.7-1.7-1.6c0,0,0-0.1,0-0.1l6.9-79.2c0.1-0.9,0.8-1.5,1.7-1.5h13.5
		c0.9,0,1.7,0.7,1.7,1.6c0,0.1,0,0.1,0,0.2l-6.6,79.2C65.7,140.6,65,141.2,64.1,141.2z"/>
</g>
</svg>
